<svg width="24" height="24" viewBox="0 0 24 24" fill="none" xmlns="http://www.w3.org/2000/svg">
<path fill-rule="evenodd" clip-rule="evenodd" d="M12.1083 0.109375C5.61158 0.109375 0.326172 5.39478 0.326172 11.8915C0.326172 18.3882 5.61158 23.6736 12.1083 23.6736C18.605 23.6736 23.8904 18.3882 23.8904 11.8915C23.8904 5.39478 18.605 0.109375 12.1083 0.109375ZM19.8982 5.54273C21.2999 7.25522 22.1487 9.43638 22.1708 11.8117C21.839 11.7415 18.5118 11.0667 15.1632 11.4878C14.8899 10.8207 14.632 10.2339 14.2787 9.51077C17.9996 7.9916 19.6861 5.82972 19.8982 5.54273ZM13.505 8.01426C17.0835 6.67295 18.5984 4.63679 18.7794 4.37896C16.3045 2.18317 12.9414 1.35353 9.74995 2.12283C10.0281 2.4953 11.8559 4.98436 13.505 8.01426ZM7.8297 2.7993C8.09504 3.16317 9.89338 5.65532 11.5609 8.61952C6.8534 9.86961 2.7072 9.8516 2.25711 9.84566C2.90968 6.72279 5.01421 4.12731 7.8297 2.7993ZM2.04968 11.5993C2.0466 11.7015 2.04455 11.8039 2.04455 11.9068C2.04455 14.4916 3.02437 16.8516 4.63172 18.6357C6.26302 15.8432 9.56937 12.9 13.2085 11.875C12.9559 11.3033 12.6806 10.7309 12.3926 10.1671C7.36683 11.6712 2.48999 11.6083 2.04968 11.5993ZM5.93108 19.8461C6.9823 17.6971 9.83522 14.9232 13.8925 13.5391C15.3054 17.2107 15.8897 20.2878 16.0394 21.1707C12.8035 22.5491 8.91237 22.1709 5.93108 19.8461ZM15.7762 13.074C17.0924 16.6912 17.6281 19.6372 17.7312 20.2494C19.9889 18.7228 21.5962 16.3044 22.0448 13.5042C21.7005 13.3956 18.9298 12.5692 15.7762 13.074Z" fill="white"/>
<mask id="mask0_47_528" style="mask-type:luminance" maskUnits="userSpaceOnUse" x="0" y="0" width="24" height="24">
<path fill-rule="evenodd" clip-rule="evenodd" d="M12.1083 0.109375C5.61158 0.109375 0.326172 5.39478 0.326172 11.8915C0.326172 18.3882 5.61158 23.6736 12.1083 23.6736C18.605 23.6736 23.8904 18.3882 23.8904 11.8915C23.8904 5.39478 18.605 0.109375 12.1083 0.109375ZM19.8982 5.54273C21.2999 7.25522 22.1487 9.43638 22.1708 11.8117C21.839 11.7415 18.5118 11.0667 15.1632 11.4878C14.8899 10.8207 14.632 10.2339 14.2787 9.51077C17.9996 7.9916 19.6861 5.82972 19.8982 5.54273ZM13.505 8.01426C17.0835 6.67295 18.5984 4.63679 18.7794 4.37896C16.3045 2.18317 12.9414 1.35353 9.74995 2.12283C10.0281 2.4953 11.8559 4.98436 13.505 8.01426ZM7.8297 2.7993C8.09504 3.16317 9.89338 5.65532 11.5609 8.61952C6.8534 9.86961 2.7072 9.8516 2.25711 9.84566C2.90968 6.72279 5.01421 4.12731 7.8297 2.7993ZM2.04968 11.5993C2.0466 11.7015 2.04455 11.8039 2.04455 11.9068C2.04455 14.4916 3.02437 16.8516 4.63172 18.6357C6.26302 15.8432 9.56937 12.9 13.2085 11.875C12.9559 11.3033 12.6806 10.7309 12.3926 10.1671C7.36683 11.6712 2.48999 11.6083 2.04968 11.5993ZM5.93108 19.8461C6.9823 17.6971 9.83522 14.9232 13.8925 13.5391C15.3054 17.2107 15.8897 20.2878 16.0394 21.1707C12.8035 22.5491 8.91237 22.1709 5.93108 19.8461ZM15.7762 13.074C17.0924 16.6912 17.6281 19.6372 17.7312 20.2494C19.9889 18.7228 21.5962 16.3044 22.0448 13.5042C21.7005 13.3956 18.9298 12.5692 15.7762 13.074Z" fill="white"/>
</mask>
<g mask="url(#mask0_47_528)">
</g>
</svg>
