<svg width="14" height="26" viewBox="0 0 14 26" fill="none" xmlns="http://www.w3.org/2000/svg">
<path d="M4.30577 25.2696V14.3902H0.418945V10.0669H4.30577V6.66058C4.30577 2.95967 6.71793 0.945312 10.2399 0.945312C11.9274 0.945312 13.3767 1.06408 13.7973 1.11634V4.98353H11.3548C9.43922 4.98353 9.06928 5.83868 9.06928 7.08815V10.0669H13.3919L12.799 14.3902H9.06928V25.2696" fill="white"/>
<mask id="mask0_47_233" style="mask-type:luminance" maskUnits="userSpaceOnUse" x="0" y="0" width="14" height="26">
<path d="M4.30577 25.2696V14.3902H0.418945V10.0669H4.30577V6.66058C4.30577 2.95967 6.71793 0.945312 10.2399 0.945312C11.9274 0.945312 13.3767 1.06408 13.7973 1.11634V4.98353H11.3548C9.43922 4.98353 9.06928 5.83868 9.06928 7.08815V10.0669H13.3919L12.799 14.3902H9.06928V25.2696" fill="white"/>
</mask>
<g mask="url(#mask0_47_233)">
</g>
</svg>
