<svg width="10" height="18" viewBox="0 0 10 18" fill="none" xmlns="http://www.w3.org/2000/svg">
<path d="M3.0472 17.2978V9.80305H0.358398V6.8248H3.0472V4.4782C3.0472 1.92868 4.71587 0.541016 7.15227 0.541016C8.31964 0.541016 9.32224 0.622836 9.61321 0.658837V3.3229H7.9235C6.59838 3.3229 6.34247 3.912 6.34247 4.77275V6.8248H9.33276L8.9226 9.80305H6.34247V17.2978" fill="#1A1A1A"/>
<mask id="mask0_47_2177" style="mask-type:luminance" maskUnits="userSpaceOnUse" x="0" y="0" width="10" height="18">
<path d="M3.0472 17.2978V9.80305H0.358398V6.8248H3.0472V4.4782C3.0472 1.92868 4.71587 0.541016 7.15227 0.541016C8.31964 0.541016 9.32224 0.622836 9.61321 0.658837V3.3229H7.9235C6.59838 3.3229 6.34247 3.912 6.34247 4.77275V6.8248H9.33276L8.9226 9.80305H6.34247V17.2978" fill="white"/>
</mask>
<g mask="url(#mask0_47_2177)">
</g>
</svg>
