<svg width="26" height="20" viewBox="0 0 26 20" fill="none" xmlns="http://www.w3.org/2000/svg">
<path d="M22.7693 5.15396C22.7847 5.37003 22.7847 5.58614 22.7847 5.80221C22.7847 12.3926 17.7686 19.9862 8.60068 19.9862C5.77621 19.9862 3.15241 19.1682 0.945312 17.7483C1.34662 17.7946 1.73243 17.81 2.14918 17.81C4.4797 17.81 6.62509 17.0229 8.33829 15.6801C6.14663 15.6338 4.30996 14.1984 3.67714 12.2228C3.98585 12.2691 4.29452 12.3 4.61867 12.3C5.06624 12.3 5.51387 12.2382 5.93056 12.1302C3.64631 11.6672 1.93306 9.66075 1.93306 7.23758V7.17587C2.59671 7.54629 3.36848 7.7778 4.18643 7.80864C2.84366 6.91343 1.96394 5.38547 1.96394 3.65683C1.96394 2.73079 2.21084 1.88191 2.64303 1.14106C5.09708 4.16616 8.78587 6.14171 12.9222 6.35782C12.845 5.9874 12.7987 5.60158 12.7987 5.21572C12.7987 2.4684 15.0213 0.230469 17.784 0.230469C19.2193 0.230469 20.5158 0.832401 21.4264 1.80476C22.5531 1.58869 23.6335 1.17194 24.5905 0.600892C24.22 1.75848 23.4329 2.73084 22.3988 3.34816C23.402 3.24018 24.3744 2.9623 25.2695 2.57648C24.5906 3.56423 23.7416 4.44395 22.7693 5.15396Z" fill="white"/>
<mask id="mask0_47_514" style="mask-type:luminance" maskUnits="userSpaceOnUse" x="0" y="0" width="26" height="20">
<path d="M22.7693 5.15396C22.7847 5.37003 22.7847 5.58614 22.7847 5.80221C22.7847 12.3926 17.7686 19.9862 8.60068 19.9862C5.77621 19.9862 3.15241 19.1682 0.945312 17.7483C1.34662 17.7946 1.73243 17.81 2.14918 17.81C4.4797 17.81 6.62509 17.0229 8.33829 15.6801C6.14663 15.6338 4.30996 14.1984 3.67714 12.2228C3.98585 12.2691 4.29452 12.3 4.61867 12.3C5.06624 12.3 5.51387 12.2382 5.93056 12.1302C3.64631 11.6672 1.93306 9.66075 1.93306 7.23758V7.17587C2.59671 7.54629 3.36848 7.7778 4.18643 7.80864C2.84366 6.91343 1.96394 5.38547 1.96394 3.65683C1.96394 2.73079 2.21084 1.88191 2.64303 1.14106C5.09708 4.16616 8.78587 6.14171 12.9222 6.35782C12.845 5.9874 12.7987 5.60158 12.7987 5.21572C12.7987 2.4684 15.0213 0.230469 17.784 0.230469C19.2193 0.230469 20.5158 0.832401 21.4264 1.80476C22.5531 1.58869 23.6335 1.17194 24.5905 0.600892C24.22 1.75848 23.4329 2.73084 22.3988 3.34816C23.402 3.24018 24.3744 2.9623 25.2695 2.57648C24.5906 3.56423 23.7416 4.44395 22.7693 5.15396Z" fill="white"/>
</mask>
<g mask="url(#mask0_47_514)">
</g>
</svg>
