<svg width="18" height="14" viewBox="0 0 18 14" fill="none" xmlns="http://www.w3.org/2000/svg">
<path d="M15.6265 3.506C15.6372 3.65484 15.6372 3.80372 15.6372 3.95257C15.6372 8.4926 12.1672 13.7238 5.82508 13.7238C3.87118 13.7238 2.05611 13.1602 0.529297 12.1821C0.806908 12.214 1.07381 12.2246 1.3621 12.2246C2.97429 12.2246 4.45842 11.6824 5.64356 10.7574C4.12743 10.7254 2.85687 9.73663 2.4191 8.37567C2.63266 8.40754 2.84619 8.42882 3.07043 8.42882C3.38005 8.42882 3.6897 8.38627 3.97796 8.31188C2.39778 7.99288 1.21259 6.61068 1.21259 4.94138V4.89887C1.67169 5.15405 2.20558 5.31353 2.77142 5.33477C1.84252 4.71808 1.23396 3.66548 1.23396 2.47464C1.23396 1.8367 1.40476 1.25192 1.70373 0.741556C3.40138 2.82551 5.95319 4.18644 8.81458 4.33532C8.76121 4.08014 8.72917 3.81436 8.72917 3.54854C8.72917 1.65594 10.2667 0.114258 12.1778 0.114258C13.1708 0.114258 14.0676 0.528922 14.6976 1.19877C15.477 1.04992 16.2244 0.762829 16.8864 0.369438C16.6301 1.16689 16.0856 1.83673 15.3702 2.262C16.0643 2.18761 16.7369 1.99619 17.3562 1.7304C16.8864 2.41085 16.2992 3.01688 15.6265 3.506Z" fill="#1A1A1A"/>
<mask id="mask0_47_2182" style="mask-type:luminance" maskUnits="userSpaceOnUse" x="0" y="0" width="18" height="14">
<path d="M15.6265 3.506C15.6372 3.65484 15.6372 3.80372 15.6372 3.95257C15.6372 8.4926 12.1672 13.7238 5.82508 13.7238C3.87118 13.7238 2.05611 13.1602 0.529297 12.1821C0.806908 12.214 1.07381 12.2246 1.3621 12.2246C2.97429 12.2246 4.45842 11.6824 5.64356 10.7574C4.12743 10.7254 2.85687 9.73663 2.4191 8.37567C2.63266 8.40754 2.84619 8.42882 3.07043 8.42882C3.38005 8.42882 3.6897 8.38627 3.97796 8.31188C2.39778 7.99288 1.21259 6.61068 1.21259 4.94138V4.89887C1.67169 5.15405 2.20558 5.31353 2.77142 5.33477C1.84252 4.71808 1.23396 3.66548 1.23396 2.47464C1.23396 1.8367 1.40476 1.25192 1.70373 0.741556C3.40138 2.82551 5.95319 4.18644 8.81458 4.33532C8.76121 4.08014 8.72917 3.81436 8.72917 3.54854C8.72917 1.65594 10.2667 0.114258 12.1778 0.114258C13.1708 0.114258 14.0676 0.528922 14.6976 1.19877C15.477 1.04992 16.2244 0.762829 16.8864 0.369438C16.6301 1.16689 16.0856 1.83673 15.3702 2.262C16.0643 2.18761 16.7369 1.99619 17.3562 1.7304C16.8864 2.41085 16.2992 3.01688 15.6265 3.506Z" fill="white"/>
</mask>
<g mask="url(#mask0_47_2182)">
</g>
</svg>
