<svg width="17" height="12" viewBox="0 0 17 12" fill="none" xmlns="http://www.w3.org/2000/svg">
<path fill-rule="evenodd" clip-rule="evenodd" d="M14.2906 0.601995C14.977 0.788181 15.5176 1.33681 15.7011 2.03343C16.0345 3.29609 16.0345 5.93051 16.0345 5.93051C16.0345 5.93051 16.0345 8.56492 15.7011 9.82758C15.5176 10.5242 14.977 11.05 14.2906 11.2362C13.0464 11.5745 8.0573 11.5745 8.0573 11.5745C8.0573 11.5745 3.06823 11.5745 1.824 11.2362C1.13757 11.05 0.596951 10.5242 0.413462 9.82758C0.0800781 8.56492 0.0800781 5.93051 0.0800781 5.93051C0.0800781 5.93051 0.0800781 3.29609 0.413462 2.03343C0.596951 1.33681 1.13757 0.788211 1.824 0.601995C3.06823 0.263672 8.0573 0.263672 8.0573 0.263672C8.0573 0.263672 13.0464 0.263672 14.2906 0.601995ZM10.5955 5.93056L6.42558 3.53865V8.32236L10.5955 5.93056Z" fill="#1A1A1A"/>
<mask id="mask0_47_2187" style="mask-type:luminance" maskUnits="userSpaceOnUse" x="0" y="0" width="17" height="12">
<path fill-rule="evenodd" clip-rule="evenodd" d="M14.2906 0.601995C14.977 0.788181 15.5176 1.33681 15.7011 2.03343C16.0345 3.29609 16.0345 5.93051 16.0345 5.93051C16.0345 5.93051 16.0345 8.56492 15.7011 9.82758C15.5176 10.5242 14.977 11.05 14.2906 11.2362C13.0464 11.5745 8.0573 11.5745 8.0573 11.5745C8.0573 11.5745 3.06823 11.5745 1.824 11.2362C1.13757 11.05 0.596951 10.5242 0.413462 9.82758C0.0800781 8.56492 0.0800781 5.93051 0.0800781 5.93051C0.0800781 5.93051 0.0800781 3.29609 0.413462 2.03343C0.596951 1.33681 1.13757 0.788211 1.824 0.601995C3.06823 0.263672 8.0573 0.263672 8.0573 0.263672C8.0573 0.263672 13.0464 0.263672 14.2906 0.601995ZM10.5955 5.93056L6.42558 3.53865V8.32236L10.5955 5.93056Z" fill="white"/>
</mask>
<g mask="url(#mask0_47_2187)">
</g>
</svg>
