<svg width="24" height="18" viewBox="0 0 24 18" fill="none" xmlns="http://www.w3.org/2000/svg">
<path fill-rule="evenodd" clip-rule="evenodd" d="M20.9015 1.38955C21.8938 1.65982 22.6753 2.45623 22.9405 3.46744C23.4225 5.30033 23.4225 9.12449 23.4225 9.12449C23.4225 9.12449 23.4225 12.9486 22.9405 14.7815C22.6753 15.7927 21.8938 16.556 20.9015 16.8262C19.1029 17.3174 11.8909 17.3174 11.8909 17.3174C11.8909 17.3174 4.67893 17.3174 2.88032 16.8262C1.88805 16.556 1.10655 15.7927 0.841301 14.7815C0.359375 12.9486 0.359375 9.12449 0.359375 9.12449C0.359375 9.12449 0.359375 5.30033 0.841301 3.46744C1.10655 2.45623 1.88805 1.65986 2.88032 1.38955C4.67893 0.898438 11.8909 0.898438 11.8909 0.898438C11.8909 0.898438 19.103 0.898438 20.9015 1.38955ZM15.56 9.12457L9.53218 5.65244V12.5965L15.56 9.12457Z" fill="white"/>
<mask id="mask0_47_519" style="mask-type:luminance" maskUnits="userSpaceOnUse" x="0" y="0" width="24" height="18">
<path fill-rule="evenodd" clip-rule="evenodd" d="M20.9015 1.38955C21.8938 1.65982 22.6753 2.45623 22.9405 3.46744C23.4225 5.30033 23.4225 9.12449 23.4225 9.12449C23.4225 9.12449 23.4225 12.9486 22.9405 14.7815C22.6753 15.7927 21.8938 16.556 20.9015 16.8262C19.1029 17.3174 11.8909 17.3174 11.8909 17.3174C11.8909 17.3174 4.67893 17.3174 2.88032 16.8262C1.88805 16.556 1.10655 15.7927 0.841301 14.7815C0.359375 12.9486 0.359375 9.12449 0.359375 9.12449C0.359375 9.12449 0.359375 5.30033 0.841301 3.46744C1.10655 2.45623 1.88805 1.65986 2.88032 1.38955C4.67893 0.898438 11.8909 0.898438 11.8909 0.898438C11.8909 0.898438 19.103 0.898438 20.9015 1.38955ZM15.56 9.12457L9.53218 5.65244V12.5965L15.56 9.12457Z" fill="white"/>
</mask>
<g mask="url(#mask0_47_519)">
</g>
</svg>
