<svg width="24" height="32" viewBox="0 0 24 32" fill="none" xmlns="http://www.w3.org/2000/svg">
<path fill-rule="evenodd" clip-rule="evenodd" d="M1 0H23C23.5523 0 24 0.447715 24 1V31.477L20 29L16 31L12 29L8 31L4 29L0 31.477V1C0 0.447715 0.447715 0 1 0ZM4 23H13V21H4V23ZM13 18H4V16H13V18ZM8 8C8 10.2091 9.79086 12 12 12C13.0609 12 14.0783 11.5786 14.8284 10.8284C15.5786 10.0783 16 9.06087 16 8C16 5.79086 14.2091 4 12 4C9.79086 4 8 5.79086 8 8ZM20 23H16V21H20V23ZM16 18H20V16H16V18Z" fill="#111111"/>
</svg>
