<svg width="24" height="24" viewBox="0 0 24 24" fill="none" xmlns="http://www.w3.org/2000/svg">
<circle cx="6.5" cy="21.5" r="2.5" fill="#111111"/>
<path d="M24 15H6.876L4.991 0.868C4.925 0.371 4.501 0 4 0H0V2H3.124L5.009 16.132C5.075 16.629 5.499 17 6 17H17.245L19.038 23.274C19.164 23.714 19.564 24 19.999 24C20.091 24 20.183 23.987 20.274 23.962C20.805 23.81 21.113 23.256 20.962 22.726L19.326 17H24V15Z" fill="#111111"/>
<path fill-rule="evenodd" clip-rule="evenodd" d="M9 0H22C22.553 0 23 0.447 23 1V12C23 12.553 22.553 13 22 13H9C8.447 13 8 12.553 8 12V1C8 0.447 8.447 0 9 0ZM13 5H18V3H13V5Z" fill="#111111"/>
</svg>
