<svg width="23" height="23" viewBox="0 0 23 23" fill="none" xmlns="http://www.w3.org/2000/svg">
<path fill-rule="evenodd" clip-rule="evenodd" d="M17.0381 14.8314L23 20.7933L20.7933 23L14.8314 17.0381C10.8539 19.8682 5.37127 19.178 2.21936 15.4504C-0.932547 11.7227 -0.701937 6.20163 2.74985 2.74985C6.20163 -0.701937 11.7227 -0.932547 15.4504 2.21936C19.178 5.37127 19.8682 10.8539 17.0381 14.8314ZM9.41821 2.13875C5.39788 2.13875 2.13875 5.39788 2.13875 9.41821C2.14333 13.4366 5.39978 16.6931 9.41821 16.6977C13.4385 16.6977 16.6977 13.4385 16.6977 9.41821C16.6977 5.39788 13.4385 2.13875 9.41821 2.13875Z" fill="#111111"/>
</svg>
