<svg width="24" height="24" viewBox="0 0 24 24" fill="none" xmlns="http://www.w3.org/2000/svg">
<path d="M23.0004 16.0002H3.00042L4.50042 14.0002H19.0004C19.4314 14.0002 19.8124 13.7252 19.9484 13.3162L22.9484 4.31625C23.0514 4.01125 22.9994 3.67625 22.8114 3.41525C22.6234 3.15425 22.3214 3.00025 22.0004 3.00025H4.41442L1.70742 0.29325C1.31642 -0.09775 0.68442 -0.09775 0.29342 0.29325C-0.0975798 0.68425 -0.0975798 1.31625 0.29342 1.70725L3.00042 4.41425V12.6663L0.20042 16.4002C-0.0275798 16.7032 -0.0635798 17.1083 0.10542 17.4473C0.27542 17.7863 0.62142 18.0002 1.00042 18.0002H23.0004C23.5534 18.0002 24.0004 17.5522 24.0004 17.0002C24.0004 16.4482 23.5534 16.0002 23.0004 16.0002Z" fill="#111111"/>
<circle cx="4" cy="22" r="2" fill="#111111"/>
<circle cx="20" cy="22" r="2" fill="#111111"/>
</svg>
