<svg width="44" height="32" viewBox="0 0 44 32" fill="none" xmlns="http://www.w3.org/2000/svg">
<path d="M43 14H1C0.448 14 0 14.448 0 15V17C0 17.552 0.448 18 1 18H43C43.552 18 44 17.552 44 17V15C44 14.448 43.552 14 43 14Z" fill="#1A1A1A"/>
<path d="M21 28H1C0.448 28 0 28.448 0 29V31C0 31.552 0.448 32 1 32H21C21.552 32 22 31.552 22 31V29C22 28.448 21.552 28 21 28Z" fill="#1A1A1A"/>
<path d="M43 0H23C22.448 0 22 0.448 22 1V3C22 3.552 22.448 4 23 4H43C43.552 4 44 3.552 44 3V1C44 0.448 43.552 0 43 0Z" fill="#1A1A1A"/>
</svg>
