<svg width="12" height="12" viewBox="0 0 12 12" fill="none" xmlns="http://www.w3.org/2000/svg">
<path fill-rule="evenodd" clip-rule="evenodd" d="M9.18344 7.77152L11.7197 10.3078C12.0981 10.6996 12.0927 11.3224 11.7075 11.7075C11.3224 12.0927 10.6996 12.0981 10.3078 11.7197L7.77152 9.18344C5.6273 10.6027 2.75668 10.1672 1.12978 8.17599C-0.497123 6.18475 -0.351491 3.28495 1.46673 1.46673C3.28495 -0.351491 6.18475 -0.497123 8.17599 1.12978C10.1672 2.75668 10.6027 5.6273 9.18344 7.77152ZM5.02189 2.02699C3.36748 2.02699 2.02631 3.36816 2.02631 5.02258C2.02631 6.67699 3.36748 8.01816 5.02189 8.01816C6.67631 8.01816 8.01748 6.67699 8.01748 5.02258C8.01748 3.36816 6.67631 2.02699 5.02189 2.02699Z" fill="#C8C8C8"/>
</svg>
